<svg preserveAspectRatio="xMidYMid meet" viewBox="0 .00000941 276.69793701 146.99998474" xmlns="http://www.w3.org/2000/svg"><g><path d="m98.141 12.578-13.379-11.34a5.19 5.19 0 0 0 -3.82-1.219 5.179 5.179 0 0 0 -3.559 1.86l-2.719 3.261h-72.644a2.061 2.061 0 0 0 -2.02 2.06v78.78c0 1.121.9 2.04 2.02 2.04h13.8l-1.922 9.538c-.14.738.121 1.48.68 1.961.36.32.82.48 1.3.48.24 0 .5-.038.74-.14l23.32-9.3c.019 0 .019-.02.038-.02.04-.02.102-.04.14-.059.02-.02.04-.02.06-.039a.53.53 0 0 0 .14-.102c.02-.02.04-.02.059-.039.039-.039.101-.078.14-.12l.04-.04c.058-.058.12-.12.16-.18l1.62-1.96h37.579c1.12 0 2.02-.922 2.02-2.04l.007-45.64 7.66-9.239 9.16-11.02c1.88-2.242 1.578-5.601-.62-7.484zm-94.102 71.363v-35.32h12.102c1.121 0 2.02-.922 2.02-2.04a2.03 2.03 0 0 0 -2.02-2.038h-12.102v-35.305h33.82v11.602c0 1.12.86 2.078 1.96 2.12 1.142.04 2.079-.898 2.079-2.038v-11.68h29.398l-3.059 3.68-26.277 31.637h-.078l-.004-11.56c0-1.12-.859-2.078-1.96-2.12-1.141-.04-2.079.898-2.079 2.039v11.64h-9.101c-1.121 0-2.02.922-2.02 2.04a2.03 2.03 0 0 0 2.02 2.039h9.82l-19.218 23.183a1.129 1.129 0 0 0 -.14.18c-.02.019-.02.038-.04.058a.605.605 0 0 0 -.078.16c0 .02-.02.04-.02.059-.019.058-.038.12-.058.16 0 .02-.02.039-.02.039l-.058.238-2.262 11.22zm14.539 10.758.96-4.719 3.481 2.961zm8.703-3.48-6.84-5.801 1.72-8.54 13.139 11.142zm50.641-7.278h-32.184l32.18-38.78zm-38.98 1.86-15.238-12.922 39.82-47.98c.238.32.52.62.84.898l5.14 4.36-33.601 40.48c-.72.859-.602 2.14.238 2.878.379.32.84.48 1.3.48.579 0 1.141-.237 1.54-.718l33.602-40.48 5.14 4.36c.32.261.66.5 1.02.68zm43.098-51.922c-.2.238-.5.398-.82.421a1.25 1.25 0 0 1 -.88-.28l-13.357-11.36c-.5-.422-.578-1.219-.14-1.719l3.198-3.859 15.238 12.922zm13.641-16.439-7.86 9.46-15.217-12.92 7.86-9.46c.198-.239.5-.399.82-.422h.101c.281 0 .559.101.781.281l13.38 11.359c.495.402.558 1.184.136 1.703z" fill="#0480c8" transform="matrix(1.25690933678 0 0 1.25690933678 75.50367900838 .001210765)"/><path d="m-591.18 9.06h6.48v-15.66h-4.92v-34.8h-9.18v34.8h-13.8v-34.8h-9.12v41.4h29.82zm39.66-16.2h-15.96c-1 0-1.72-.24-2.16-.72s-.66-1.28-.66-2.4v-7.98h16.5v-6.6h-16.5v-6.3c0-1.08.22-1.86.66-2.34s1.16-.72 2.16-.72h15.96l.36-6.78c-3.72-.4-10.12-.6-19.2-.6-2.72 0-4.91.75-6.57 2.25s-2.49 3.53-2.49 6.09v25.08c0 2.56.82 4.59 2.46 6.09s3.84 2.25 6.6 2.25c9.08 0 15.48-.2 19.2-.6zm40.02-34.26h-9.18v15.84h-14.58v-15.84h-9.12v41.4h9.12v-18.48h14.58v18.48h9.18zm39.3 7.44v-7.44h-33.9v7.44h12.36v33.96h9.18v-33.96zm5.34 33.96h9.18v-15.36c2.56.32 5.16.48 7.8.48 5.2 0 8.81-.95 10.83-2.85s3.03-5.47 3.03-10.71-1.07-8.8-3.21-10.68-6.09-2.82-11.85-2.82c-6.8 0-12.06.18-15.78.54zm9.18-21.9v-12.96l6.36-.06c2.4 0 4.02.44 4.86 1.32s1.26 2.6 1.26 5.16-.42 4.28-1.26 5.16-2.46 1.34-4.86 1.38zm73.62-19.5h-32.76v41.4h9.12v-34.8h14.52v34.8h9.12zm8.58 41.4h9.18v-15.36c2.56.32 5.16.48 7.8.48 5.2 0 8.81-.95 10.83-2.85s3.03-5.47 3.03-10.71-1.07-8.8-3.21-10.68-6.09-2.82-11.85-2.82c-6.8 0-12.06.18-15.78.54zm9.18-21.9v-12.96l6.36-.06c2.4 0 4.02.44 4.86 1.32s1.26 2.6 1.26 5.16-.42 4.28-1.26 5.16-2.46 1.34-4.86 1.38zm44.04-20.28c-6.64 0-11.25 1.53-13.83 4.59s-3.87 8.69-3.87 16.89 1.29 13.83 3.87 16.89 7.19 4.59 13.83 4.59 11.26-1.53 13.86-4.59 3.9-8.69 3.9-16.89-1.3-13.83-3.9-16.89-7.22-4.59-13.86-4.59zm0 7.38c3.12 0 5.25.98 6.39 2.94s1.71 5.68 1.71 11.16-.57 9.2-1.71 11.16-3.27 2.94-6.39 2.94-5.25-.98-6.39-2.94-1.71-5.68-1.71-11.16.57-9.2 1.71-11.16 3.27-2.94 6.39-2.94zm50.4-9.54h-9.18v5.4c-6.92.36-11.78 1.85-14.58 4.47s-4.2 7.05-4.2 13.29c0 6.04 1.4 10.35 4.2 12.93s7.66 4.05 14.58 4.41v5.4h9.18v-5.4c6.96-.4 11.83-1.88 14.61-4.44s4.19-6.86 4.23-12.9c-.04-6.24-1.46-10.67-4.26-13.29s-7.66-4.11-14.58-4.47zm-8.76 33.54c-3.92-.28-6.56-1.14-7.92-2.58s-2.04-4.04-2.04-7.8c0-3.96.68-6.69 2.04-8.19s4-2.37 7.92-2.61zm8.34-21.18c3.92.28 6.56 1.17 7.92 2.67s2.04 4.21 2.04 8.13c0 3.72-.68 6.31-2.04 7.77s-4 2.33-7.92 2.61zm52.92 24.84h-15.96c-1 0-1.72-.24-2.16-.72s-.66-1.28-.66-2.4v-7.98h16.5v-6.6h-16.5v-6.3c0-1.08.22-1.86.66-2.34s1.16-.72 2.16-.72h15.96l.36-6.78c-3.72-.4-10.12-.6-19.2-.6-2.72 0-4.91.75-6.57 2.25s-2.49 3.53-2.49 6.09v25.08c0 2.56.82 4.59 2.46 6.09s3.84 2.25 6.6 2.25c9.08 0 15.48-.2 19.2-.6zm35.1-.6c-2.76.36-6.92.54-12.48.54-3 0-5.05-.95-6.15-2.85s-1.65-5.45-1.65-10.65.55-8.75 1.65-10.65 3.15-2.85 6.15-2.85c4.52 0 8.4.1 11.64.3l.78-6.84c-3.64-.92-7.78-1.38-12.42-1.38-6.4 0-10.9 1.6-13.5 4.8s-3.9 8.74-3.9 16.62 1.3 13.42 3.9 16.62 7.1 4.8 13.5 4.8c5.24 0 9.66-.56 13.26-1.68zm34.56 0c-2.76.36-6.92.54-12.48.54-3 0-5.05-.95-6.15-2.85s-1.65-5.45-1.65-10.65.55-8.75 1.65-10.65 3.15-2.85 6.15-2.85c4.52 0 8.4.1 11.64.3l.78-6.84c-3.64-.92-7.78-1.38-12.42-1.38-6.4 0-10.9 1.6-13.5 4.8s-3.9 8.74-3.9 16.62 1.3 13.42 3.9 16.62 7.1 4.8 13.5 4.8c5.24 0 9.66-.56 13.26-1.68zm40.8 7.74v-41.4h-9.06l-13.98 24.66c-1.08 2.08-1.88 3.88-2.4 5.4h-.36c.32-2.12.48-4.04.48-5.76v-24.3h-8.7v41.4h9.06l13.98-24.84c.96-1.8 1.74-3.62 2.34-5.46h.42c-.36 1.88-.54 3.74-.54 5.58v24.72zm24.84-42.18c-6.64 0-11.25 1.53-13.83 4.59s-3.87 8.69-3.87 16.89 1.29 13.83 3.87 16.89 7.19 4.59 13.83 4.59 11.26-1.53 13.86-4.59 3.9-8.69 3.9-16.89-1.3-13.83-3.9-16.89-7.22-4.59-13.86-4.59zm0 7.38c3.12 0 5.25.98 6.39 2.94s1.71 5.68 1.71 11.16-.57 9.2-1.71 11.16-3.27 2.94-6.39 2.94-5.25-.98-6.39-2.94-1.71-5.68-1.71-11.16.57-9.2 1.71-11.16 3.27-2.94 6.39-2.94zm57.72-6.6h-9.18v15.84h-14.58v-15.84h-9.12v41.4h9.12v-18.48h14.58v18.48h9.18zm30.96 30.54 3 10.86h9.3l-11.94-39c-.4-1.6-1.46-2.4-3.18-2.4h-8.64c-.76 0-1.44.22-2.04.66s-.98 1.02-1.14 1.74l-11.94 39h9.36l3-10.86zm-1.98-7.08h-10.32l3.48-12.66c.12-.44.28-1.1.48-1.98s.34-1.52.42-1.92h1.62c.08.6.36 1.9.84 3.9zm50.76-23.46h-17.28c-6.04 0-9.28 3-9.72 9-.48 5.92-.94 10.39-1.38 13.41s-1.06 5.59-1.86 7.71c-.52 1.36-1.25 2.36-2.19 3s-2.19 1.1-3.75 1.38l.66 7.08c6.72.8 11.3-2.2 13.74-9 .92-2.32 1.61-5.1 2.07-8.34s.95-7.96 1.47-14.16c.16-2.32 1.42-3.48 3.78-3.48h5.28v34.8h9.18zm17.7 15.36v-15.36h-9.12v41.4h.24c3.8.32 9.32.48 16.56.48 4.92 0 8.4-.94 10.44-2.82s3.06-5.32 3.06-10.32c0-5.08-1.09-8.58-3.27-10.5s-6.11-2.88-11.79-2.88zm0 19.44v-13.02h6.12c2.44 0 4.03.46 4.77 1.38s1.11 2.68 1.11 5.28-.37 4.31-1.11 5.13-2.33 1.23-4.77 1.23zm60.42-34.8h-9.18v15.84h-14.58v-15.84h-9.12v41.4h9.12v-18.48h14.58v18.48h9.18zm24.84-.78c-6.64 0-11.25 1.53-13.83 4.59s-3.87 8.69-3.87 16.89 1.29 13.83 3.87 16.89 7.19 4.59 13.83 4.59 11.26-1.53 13.86-4.59 3.9-8.69 3.9-16.89-1.3-13.83-3.9-16.89-7.22-4.59-13.86-4.59zm0 7.38c3.12 0 5.25.98 6.39 2.94s1.71 5.68 1.71 11.16-.57 9.2-1.71 11.16-3.27 2.94-6.39 2.94-5.25-.98-6.39-2.94-1.71-5.68-1.71-11.16.57-9.2 1.71-11.16 3.27-2.94 6.39-2.94zm46.08-18.9c.16 3.28-1.14 4.92-3.9 4.92-2.84 0-4.18-1.64-4.02-4.92h-5.88c-.32 2.56.44 4.75 2.28 6.57s4.38 2.73 7.62 2.73 5.76-.91 7.56-2.73 2.54-4.01 2.22-6.57zm12.78 53.7v-41.4h-9.06l-13.98 24.66c-1.08 2.08-1.88 3.88-2.4 5.4h-.36c.32-2.12.48-4.04.48-5.76v-24.3h-8.7v41.4h9.06l13.98-24.84c.96-1.8 1.74-3.62 2.34-5.46h.42c-.36 1.88-.54 3.74-.54 5.58v24.72zm54.42-41.4h-32.76v41.4h9.12v-34.8h14.52v34.8h9.12zm24.84-.78c-6.64 0-11.25 1.53-13.83 4.59s-3.87 8.69-3.87 16.89 1.29 13.83 3.87 16.89 7.19 4.59 13.83 4.59 11.26-1.53 13.86-4.59 3.9-8.69 3.9-16.89-1.3-13.83-3.9-16.89-7.22-4.59-13.86-4.59zm0 7.38c3.12 0 5.25.98 6.39 2.94s1.71 5.68 1.71 11.16-.57 9.2-1.71 11.16-3.27 2.94-6.39 2.94-5.25-.98-6.39-2.94-1.71-5.68-1.71-11.16.57-9.2 1.71-11.16 3.27-2.94 6.39-2.94zm55.56 43.86h6.48v-15.66h-5.4v-34.8h-16.98c-2.8 0-5.06.79-6.78 2.37s-2.68 3.67-2.88 6.27c-.76 10.36-2.56 19.08-5.4 26.16h-4.38v15.66h6.48l.72-9.06h27.42zm-8.04-15.66h-14.34c1.56-3.2 2.74-6.66 3.54-10.38s1.44-8.48 1.92-14.28c.08-1.28.39-2.19.93-2.73s1.41-.81 2.61-.81h5.34zm20.04 6.6h9.18v-30.9c0-1.2.25-2.05.75-2.55s1.33-.75 2.49-.75h14.22l.42-6.72c-3.6-.44-9.72-.66-18.36-.66-2.52 0-4.6.82-6.24 2.46s-2.46 3.76-2.46 6.36zm47.94-42.18c-6.64 0-11.25 1.53-13.83 4.59s-3.87 8.69-3.87 16.89 1.29 13.83 3.87 16.89 7.19 4.59 13.83 4.59 11.26-1.53 13.86-4.59 3.9-8.69 3.9-16.89-1.3-13.83-3.9-16.89-7.22-4.59-13.86-4.59zm0 7.38c3.12 0 5.25.98 6.39 2.94s1.71 5.68 1.71 11.16-.57 9.2-1.71 11.16-3.27 2.94-6.39 2.94-5.25-.98-6.39-2.94-1.71-5.68-1.71-11.16.57-9.2 1.71-11.16 3.27-2.94 6.39-2.94zm55.08.84v-7.44h-33.9v7.44h12.36v33.96h9.18v-33.96zm21.18-8.22c-6.64 0-11.25 1.53-13.83 4.59s-3.87 8.69-3.87 16.89 1.29 13.83 3.87 16.89 7.19 4.59 13.83 4.59 11.26-1.53 13.86-4.59 3.9-8.69 3.9-16.89-1.3-13.83-3.9-16.89-7.22-4.59-13.86-4.59zm0 7.38c3.12 0 5.25.98 6.39 2.94s1.71 5.68 1.71 11.16-.57 9.2-1.71 11.16-3.27 2.94-6.39 2.94-5.25-.98-6.39-2.94-1.71-5.68-1.71-11.16.57-9.2 1.71-11.16 3.27-2.94 6.39-2.94zm47.76 13.2c2.56-.24 4.4-1.13 5.52-2.67s1.68-3.81 1.68-6.81c0-4.2-1.06-7.05-3.18-8.55s-5.92-2.25-11.4-2.25c-6.8 0-12 .16-15.6.48v41.4c4.04.32 9.88.48 17.52.48 5.08 0 8.68-.76 10.8-2.28s3.18-4.36 3.18-8.52c0-3.44-.65-6.07-1.95-7.89s-3.49-2.87-6.57-3.15zm-14.04-2.88v-10.56l6.18.06c2.48 0 4.15.34 5.01 1.02s1.29 2.06 1.29 4.14c0 2.12-.41 3.54-1.23 4.26s-2.33 1.08-4.53 1.08zm0 18.06v-12h6.78c2.6.04 4.36.49 5.28 1.35s1.38 2.53 1.38 5.01c0 2.28-.44 3.79-1.32 4.53s-2.6 1.11-5.16 1.11zm48.06-15.3c1.4-.2 2.6-.52 3.6-.96 2.12-1 3.88-3.06 5.28-6.18.6-1.32 2.02-5.5 4.26-12.54h-9.3c-.04.12-.1.32-.18.6-1.84 6.36-3.39 10.62-4.65 12.78s-3.31 3.24-6.15 3.24h-2.82c.32-1.72.48-3.36.48-4.92v-11.7h-9.12v41.4h9.12v-14.28c0-1.16-.16-2.48-.48-3.96h2.94c.92 0 1.74.1 2.46.3 1.88.48 3.44 1.98 4.68 4.5.8 1.64 2.32 6.12 4.56 13.44h9.54c-.2-.64-.5-1.58-.9-2.82-.56-1.76-.96-3.01-1.2-3.75s-.59-1.79-1.05-3.15-.81-2.31-1.05-2.85-.57-1.29-.99-2.25-.78-1.62-1.08-1.98-.68-.85-1.14-1.47-.91-1.05-1.35-1.29-.95-.52-1.53-.84-1.19-.55-1.83-.69-1.34-.27-2.1-.39zm53.7 21.72v-41.4h-9.06l-13.98 24.66c-1.08 2.08-1.88 3.88-2.4 5.4h-.36c.32-2.12.48-4.04.48-5.76v-24.3h-8.7v41.4h9.06l13.98-24.84c.96-1.8 1.74-3.62 2.34-5.46h.42c-.36 1.88-.54 3.74-.54 5.58v24.72z" fill="#4d4d4d" transform="matrix(.22252619 0 0 .22252619 138.34897639354 144.98391585368)"/></g></svg>