<svg id="SvgjsSvg1066" width="100%" height="100%" xmlns="http://www.w3.org/2000/svg" version="1.1" xlink="http://www.w3.org/1999/xlink" xmlns:svgjs="http://svgjs.com/svgjs" preserveAspectRatio="xMidYMid meet" viewBox="0 0.00000940973677643342 276.69793701171875 146.99998474121094" overflow="visible"><defs id="SvgjsDefs1067"></defs><g id="SvgjsG1068" transform="scale(0.22252618547003963)" opacity="1"><g id="SvgjsG1069" class="0ybHu40tP2" transform="translate(339.30243891758545, 0.005441383980211891) scale(5.648365873476272)" light-content="false" non-strokable="false" fill="#0480c8"><path d="M98.141 12.578L84.762 1.238a5.19 5.19 0 0 0-3.82-1.219 5.179 5.179 0 0 0-3.559 1.86L74.664 5.14H2.02A2.061 2.061 0 0 0 0 7.2v78.78c0 1.121.9 2.04 2.02 2.04h13.8l-1.922 9.538c-.14.738.121 1.48.68 1.961.36.32.82.48 1.3.48.24 0 .5-.038.74-.14l23.32-9.3c.019 0 .019-.02.038-.02.04-.02.102-.04.14-.059.02-.02.04-.02.06-.039a.53.53 0 0 0 .14-.102c.02-.02.04-.02.059-.039.039-.039.101-.078.14-.12l.04-.04c.058-.058.12-.12.16-.18l1.62-1.96h37.579c1.12 0 2.02-.922 2.02-2.04l.007-45.64 7.66-9.239 9.16-11.02c1.88-2.242 1.578-5.601-.62-7.484zM4.039 83.941v-35.32h12.102c1.121 0 2.02-.922 2.02-2.04a2.03 2.03 0 0 0-2.02-2.038H4.039V9.238h33.82V20.84c0 1.12.86 2.078 1.96 2.12 1.142.04 2.079-.898 2.079-2.038V9.242h29.398l-3.059 3.68L41.96 44.559h-.078l-.004-11.56c0-1.12-.859-2.078-1.96-2.12-1.141-.04-2.079.898-2.079 2.039v11.64h-9.101c-1.121 0-2.02.922-2.02 2.04a2.03 2.03 0 0 0 2.02 2.039h9.82L19.34 71.82a1.129 1.129 0 0 0-.14.18c-.02.019-.02.038-.04.058a.605.605 0 0 0-.078.16c0 .02-.02.04-.02.059-.019.058-.038.12-.058.16 0 .02-.02.039-.02.039l-.058.238-2.262 11.22zm14.539 10.758l.96-4.719 3.481 2.961zm8.703-3.48l-6.84-5.801 1.72-8.54L35.3 88.02zm50.641-7.278H45.738l32.18-38.78zm-38.98 1.86L23.704 72.879l39.82-47.98c.238.32.52.62.84.898l5.14 4.36-33.601 40.48c-.72.859-.602 2.14.238 2.878.379.32.84.48 1.3.48.579 0 1.141-.237 1.54-.718l33.602-40.48 5.14 4.36c.32.261.66.5 1.02.68zM82.04 33.879c-.2.238-.5.398-.82.421a1.25 1.25 0 0 1-.88-.28L66.983 22.66c-.5-.422-.578-1.219-.14-1.719l3.198-3.859 15.238 12.922zM95.681 17.44l-7.86 9.46-15.217-12.92 7.86-9.46c.198-.239.5-.399.82-.422h.101c.281 0 .559.101.781.281l13.38 11.359c.495.402.558 1.184.136 1.703z"></path></g><g id="SvgjsG1070" class="text" transform="translate(621.719970703125, 651.5364141220841) scale(1)" light-content="false" fill="#4d4d4d"><path d="M-591.18 9.06L-584.7 9.06L-584.7 -6.6L-589.62 -6.6L-589.62 -41.4L-598.8 -41.4L-598.8 -6.6L-612.6 -6.6L-612.6 -41.4L-621.72 -41.4L-621.72 0L-591.9 0Z M-551.52 -7.14L-567.48 -7.14C-568.48 -7.14 -569.2 -7.38 -569.64 -7.86C-570.08 -8.34 -570.3 -9.14 -570.3 -10.26L-570.3 -18.24L-553.8 -18.24L-553.8 -24.84L-570.3 -24.84L-570.3 -31.14C-570.3 -32.22 -570.08 -33 -569.64 -33.48C-569.2 -33.96 -568.48 -34.2 -567.48 -34.2L-551.52 -34.2L-551.16 -40.98C-554.88 -41.38 -561.28 -41.58 -570.36 -41.58C-573.08 -41.58 -575.27 -40.83 -576.93 -39.33C-578.59 -37.83 -579.42 -35.8 -579.42 -33.24L-579.42 -8.16C-579.42 -5.6 -578.6 -3.57 -576.96 -2.07C-575.32 -0.57 -573.12 0.18 -570.36 0.18C-561.28 0.18 -554.88 -0.02 -551.16 -0.42Z M-511.5 -41.4L-520.68 -41.4L-520.68 -25.56L-535.26 -25.56L-535.26 -41.4L-544.38 -41.4L-544.38 0L-535.26 0L-535.26 -18.48L-520.68 -18.48L-520.68 0L-511.5 0Z M-472.2 -33.96L-472.2 -41.4L-506.1 -41.4L-506.1 -33.96L-493.74 -33.96L-493.74 0L-484.56 0L-484.56 -33.96Z M-466.86 0L-457.68 0L-457.68 -15.36C-455.12 -15.04 -452.52 -14.88 -449.88 -14.88C-444.68 -14.88 -441.07 -15.83 -439.05 -17.73C-437.03 -19.63 -436.02 -23.2 -436.02 -28.44C-436.02 -33.68 -437.09 -37.24 -439.23 -39.12C-441.37 -41 -445.32 -41.94 -451.08 -41.94C-457.88 -41.94 -463.14 -41.76 -466.86 -41.4ZM-457.68 -21.9L-457.68 -34.86L-451.32 -34.92C-448.92 -34.92 -447.3 -34.48 -446.46 -33.6C-445.62 -32.72 -445.2 -31 -445.2 -28.44C-445.2 -25.88 -445.62 -24.16 -446.46 -23.28C-447.3 -22.4 -448.92 -21.94 -451.32 -21.9Z M-384.06 -41.4L-416.82 -41.4L-416.82 0L-407.7 0L-407.7 -34.8L-393.18 -34.8L-393.18 0L-384.06 0Z M-375.48 0L-366.3 0L-366.3 -15.36C-363.74 -15.04 -361.14 -14.88 -358.5 -14.88C-353.3 -14.88 -349.69 -15.83 -347.67 -17.73C-345.65 -19.63 -344.64 -23.2 -344.64 -28.44C-344.64 -33.68 -345.71 -37.24 -347.85 -39.12C-349.99 -41 -353.94 -41.94 -359.7 -41.94C-366.5 -41.94 -371.76 -41.76 -375.48 -41.4ZM-366.3 -21.9L-366.3 -34.86L-359.94 -34.92C-357.54 -34.92 -355.92 -34.48 -355.08 -33.6C-354.24 -32.72 -353.82 -31 -353.82 -28.44C-353.82 -25.88 -354.24 -24.16 -355.08 -23.28C-355.92 -22.4 -357.54 -21.94 -359.94 -21.9Z M-322.26 -42.18C-328.9 -42.18 -333.51 -40.65 -336.09 -37.59C-338.67 -34.53 -339.96 -28.9 -339.96 -20.7C-339.96 -12.5 -338.67 -6.87 -336.09 -3.81C-333.51 -0.75 -328.9 0.78 -322.26 0.78C-315.62 0.78 -311 -0.75 -308.4 -3.81C-305.8 -6.87 -304.5 -12.5 -304.5 -20.7C-304.5 -28.9 -305.8 -34.53 -308.4 -37.59C-311 -40.65 -315.62 -42.18 -322.26 -42.18ZM-322.26 -34.8C-319.14 -34.8 -317.01 -33.82 -315.87 -31.86C-314.73 -29.9 -314.16 -26.18 -314.16 -20.7C-314.16 -15.22 -314.73 -11.5 -315.87 -9.54C-317.01 -7.58 -319.14 -6.6 -322.26 -6.6C-325.38 -6.6 -327.51 -7.58 -328.65 -9.54C-329.79 -11.5 -330.36 -15.22 -330.36 -20.7C-330.36 -26.18 -329.79 -29.9 -328.65 -31.86C-327.51 -33.82 -325.38 -34.8 -322.26 -34.8Z M-271.86 -44.34L-281.04 -44.34L-281.04 -38.94C-287.96 -38.58 -292.82 -37.09 -295.62 -34.47C-298.42 -31.85 -299.82 -27.42 -299.82 -21.18C-299.82 -15.14 -298.42 -10.83 -295.62 -8.25C-292.82 -5.67 -287.96 -4.2 -281.04 -3.84L-281.04 1.56L-271.86 1.56L-271.86 -3.84C-264.9 -4.24 -260.03 -5.72 -257.25 -8.28C-254.47 -10.84 -253.06 -15.14 -253.02 -21.18C-253.06 -27.42 -254.48 -31.85 -257.28 -34.47C-260.08 -37.09 -264.94 -38.58 -271.86 -38.94ZM-280.62 -10.8C-284.54 -11.08 -287.18 -11.94 -288.54 -13.38C-289.9 -14.82 -290.58 -17.42 -290.58 -21.18C-290.58 -25.14 -289.9 -27.87 -288.54 -29.37C-287.18 -30.87 -284.54 -31.74 -280.62 -31.98ZM-272.28 -31.98C-268.36 -31.7 -265.72 -30.81 -264.36 -29.31C-263 -27.81 -262.32 -25.1 -262.32 -21.18C-262.32 -17.46 -263 -14.87 -264.36 -13.41C-265.72 -11.95 -268.36 -11.08 -272.28 -10.8Z M-219.36 -7.14L-235.32 -7.14C-236.32 -7.14 -237.04 -7.38 -237.48 -7.86C-237.92 -8.34 -238.14 -9.14 -238.14 -10.26L-238.14 -18.24L-221.64 -18.24L-221.64 -24.84L-238.14 -24.84L-238.14 -31.14C-238.14 -32.22 -237.92 -33 -237.48 -33.48C-237.04 -33.96 -236.32 -34.2 -235.32 -34.2L-219.36 -34.2L-219 -40.98C-222.72 -41.38 -229.12 -41.58 -238.2 -41.58C-240.92 -41.58 -243.11 -40.83 -244.77 -39.33C-246.43 -37.83 -247.26 -35.8 -247.26 -33.24L-247.26 -8.16C-247.26 -5.6 -246.44 -3.57 -244.8 -2.07C-243.16 -0.57 -240.96 0.18 -238.2 0.18C-229.12 0.18 -222.72 -0.02 -219 -0.42Z M-184.26 -7.74C-187.02 -7.38 -191.18 -7.2 -196.74 -7.2C-199.74 -7.2 -201.79 -8.15 -202.89 -10.05C-203.99 -11.95 -204.54 -15.5 -204.54 -20.7C-204.54 -25.9 -203.99 -29.45 -202.89 -31.35C-201.79 -33.25 -199.74 -34.2 -196.74 -34.2C-192.22 -34.2 -188.34 -34.1 -185.1 -33.9L-184.32 -40.74C-187.96 -41.66 -192.1 -42.12 -196.74 -42.12C-203.14 -42.12 -207.64 -40.52 -210.24 -37.32C-212.84 -34.12 -214.14 -28.58 -214.14 -20.7C-214.14 -12.82 -212.84 -7.28 -210.24 -4.08C-207.64 -0.88 -203.14 0.72 -196.74 0.72C-191.5 0.72 -187.08 0.16 -183.48 -0.96Z M-149.7 -7.74C-152.46 -7.38 -156.62 -7.2 -162.18 -7.2C-165.18 -7.2 -167.23 -8.15 -168.33 -10.05C-169.43 -11.95 -169.98 -15.5 -169.98 -20.7C-169.98 -25.9 -169.43 -29.45 -168.33 -31.35C-167.23 -33.25 -165.18 -34.2 -162.18 -34.2C-157.66 -34.2 -153.78 -34.1 -150.54 -33.9L-149.76 -40.74C-153.4 -41.66 -157.54 -42.12 -162.18 -42.12C-168.58 -42.12 -173.08 -40.52 -175.68 -37.32C-178.28 -34.12 -179.58 -28.58 -179.58 -20.7C-179.58 -12.82 -178.28 -7.28 -175.68 -4.08C-173.08 -0.88 -168.58 0.72 -162.18 0.72C-156.94 0.72 -152.52 0.16 -148.92 -0.96Z M-108.9 0L-108.9 -41.4L-117.96 -41.4L-131.94 -16.74C-133.02 -14.66 -133.82 -12.86 -134.34 -11.34L-134.7 -11.34C-134.38 -13.46 -134.22 -15.38 -134.22 -17.1L-134.22 -41.4L-142.92 -41.4L-142.92 0L-133.86 0L-119.88 -24.84C-118.92 -26.64 -118.14 -28.46 -117.54 -30.3L-117.12 -30.3C-117.48 -28.42 -117.66 -26.56 -117.66 -24.72L-117.66 0Z M-84.06 -42.18C-90.7 -42.18 -95.31 -40.65 -97.89 -37.59C-100.47 -34.53 -101.76 -28.9 -101.76 -20.7C-101.76 -12.5 -100.47 -6.87 -97.89 -3.81C-95.31 -0.75 -90.7 0.78 -84.06 0.78C-77.42 0.78 -72.8 -0.75 -70.2 -3.81C-67.6 -6.87 -66.3 -12.5 -66.3 -20.7C-66.3 -28.9 -67.6 -34.53 -70.2 -37.59C-72.8 -40.65 -77.42 -42.18 -84.06 -42.18ZM-84.06 -34.8C-80.94 -34.8 -78.81 -33.82 -77.67 -31.86C-76.53 -29.9 -75.96 -26.18 -75.96 -20.7C-75.96 -15.22 -76.53 -11.5 -77.67 -9.54C-78.81 -7.58 -80.94 -6.6 -84.06 -6.6C-87.18 -6.6 -89.31 -7.58 -90.45 -9.54C-91.59 -11.5 -92.16 -15.22 -92.16 -20.7C-92.16 -26.18 -91.59 -29.9 -90.45 -31.86C-89.31 -33.82 -87.18 -34.8 -84.06 -34.8Z M-26.34 -41.4L-35.52 -41.4L-35.52 -25.56L-50.1 -25.56L-50.1 -41.4L-59.22 -41.4L-59.22 0L-50.1 0L-50.1 -18.48L-35.52 -18.48L-35.52 0L-26.34 0Z M4.62 -10.86L7.62 0L16.92 0L4.98 -39C4.58 -40.6 3.52 -41.4 1.8 -41.4L-6.84 -41.4C-7.6 -41.4 -8.28 -41.18 -8.88 -40.74C-9.48 -40.3 -9.86 -39.72 -10.02 -39L-21.96 0L-12.6 0L-9.6 -10.86ZM2.64 -17.94L-7.68 -17.94L-4.2 -30.6C-4.08 -31.04 -3.92 -31.7 -3.72 -32.58C-3.52 -33.46 -3.38 -34.1 -3.3 -34.5L-1.68 -34.5C-1.6 -33.9 -1.32 -32.6 -0.84 -30.6Z M53.4 -41.4L36.12 -41.4C30.08 -41.4 26.84 -38.4 26.4 -32.4C25.92 -26.48 25.46 -22.01 25.02 -18.99C24.58 -15.97 23.96 -13.4 23.16 -11.28C22.64 -9.92 21.91 -8.92 20.97 -8.28C20.03 -7.64 18.78 -7.18 17.22 -6.9L17.88 0.18C24.6 0.98 29.18 -2.02 31.62 -8.82C32.54 -11.14 33.23 -13.92 33.69 -17.16C34.15 -20.4 34.64 -25.12 35.16 -31.32C35.32 -33.64 36.58 -34.8 38.94 -34.8L44.22 -34.8L44.22 0L53.4 0Z M71.1 -26.04L71.1 -41.4L61.98 -41.4L61.98 0L62.22 0C66.02 0.32 71.54 0.48 78.78 0.48C83.7 0.48 87.18 -0.46 89.22 -2.34C91.26 -4.22 92.28 -7.66 92.28 -12.66C92.28 -17.74 91.19 -21.24 89.01 -23.16C86.83 -25.08 82.9 -26.04 77.22 -26.04ZM71.1 -6.6L71.1 -19.62L77.22 -19.62C79.66 -19.62 81.25 -19.16 81.99 -18.24C82.73 -17.32 83.1 -15.56 83.1 -12.96C83.1 -10.36 82.73 -8.65 81.99 -7.83C81.25 -7.01 79.66 -6.6 77.22 -6.6Z M131.52 -41.4L122.34 -41.4L122.34 -25.56L107.76 -25.56L107.76 -41.4L98.64 -41.4L98.64 0L107.76 0L107.76 -18.48L122.34 -18.48L122.34 0L131.52 0Z M156.36 -42.18C149.72 -42.18 145.11 -40.65 142.53 -37.59C139.95 -34.53 138.66 -28.9 138.66 -20.7C138.66 -12.5 139.95 -6.87 142.53 -3.81C145.11 -0.75 149.72 0.78 156.36 0.78C163 0.78 167.62 -0.75 170.22 -3.81C172.82 -6.87 174.12 -12.5 174.12 -20.7C174.12 -28.9 172.82 -34.53 170.22 -37.59C167.62 -40.65 163 -42.18 156.36 -42.18ZM156.36 -34.8C159.48 -34.8 161.61 -33.82 162.75 -31.86C163.89 -29.9 164.46 -26.18 164.46 -20.7C164.46 -15.22 163.89 -11.5 162.75 -9.54C161.61 -7.58 159.48 -6.6 156.36 -6.6C153.24 -6.6 151.11 -7.58 149.97 -9.54C148.83 -11.5 148.26 -15.22 148.26 -20.7C148.26 -26.18 148.83 -29.9 149.97 -31.86C151.11 -33.82 153.24 -34.8 156.36 -34.8Z M202.44 -53.7C202.6 -50.42 201.3 -48.78 198.54 -48.78C195.7 -48.78 194.36 -50.42 194.52 -53.7L188.64 -53.7C188.32 -51.14 189.08 -48.95 190.92 -47.13C192.76 -45.31 195.3 -44.4 198.54 -44.4C201.78 -44.4 204.3 -45.31 206.1 -47.13C207.9 -48.95 208.64 -51.14 208.32 -53.7ZM215.22 0L215.22 -41.4L206.16 -41.4L192.18 -16.74C191.1 -14.66 190.3 -12.86 189.78 -11.34L189.42 -11.34C189.74 -13.46 189.9 -15.38 189.9 -17.1L189.9 -41.4L181.2 -41.4L181.2 0L190.26 0L204.24 -24.84C205.2 -26.64 205.98 -28.46 206.58 -30.3L207 -30.3C206.64 -28.42 206.46 -26.56 206.46 -24.72L206.46 0Z M269.64 -41.4L236.88 -41.4L236.88 0L246 0L246 -34.8L260.52 -34.8L260.52 0L269.64 0Z M294.48 -42.18C287.84 -42.18 283.23 -40.65 280.65 -37.59C278.07 -34.53 276.78 -28.9 276.78 -20.7C276.78 -12.5 278.07 -6.87 280.65 -3.81C283.23 -0.75 287.84 0.78 294.48 0.78C301.12 0.78 305.74 -0.75 308.34 -3.81C310.94 -6.87 312.24 -12.5 312.24 -20.7C312.24 -28.9 310.94 -34.53 308.34 -37.59C305.74 -40.65 301.12 -42.18 294.48 -42.18ZM294.48 -34.8C297.6 -34.8 299.73 -33.82 300.87 -31.86C302.01 -29.9 302.58 -26.18 302.58 -20.7C302.58 -15.22 302.01 -11.5 300.87 -9.54C299.73 -7.58 297.6 -6.6 294.48 -6.6C291.36 -6.6 289.23 -7.58 288.09 -9.54C286.95 -11.5 286.38 -15.22 286.38 -20.7C286.38 -26.18 286.95 -29.9 288.09 -31.86C289.23 -33.82 291.36 -34.8 294.48 -34.8Z M350.04 9.06L356.52 9.06L356.52 -6.6L351.12 -6.6L351.12 -41.4L334.14 -41.4C331.34 -41.4 329.08 -40.61 327.36 -39.03C325.64 -37.45 324.68 -35.36 324.48 -32.76C323.72 -22.4 321.92 -13.68 319.08 -6.6L314.7 -6.6L314.7 9.06L321.18 9.06L321.9 0L349.32 0ZM342 -6.6L327.66 -6.6C329.22 -9.8 330.4 -13.26 331.2 -16.98C332 -20.7 332.64 -25.46 333.12 -31.26C333.2 -32.54 333.51 -33.45 334.05 -33.99C334.59 -34.53 335.46 -34.8 336.66 -34.8L342 -34.8Z M362.04 0L371.22 0L371.22 -30.9C371.22 -32.1 371.47 -32.95 371.97 -33.45C372.47 -33.95 373.3 -34.2 374.46 -34.2L388.68 -34.2L389.1 -40.92C385.5 -41.36 379.38 -41.58 370.74 -41.58C368.22 -41.58 366.14 -40.76 364.5 -39.12C362.86 -37.48 362.04 -35.36 362.04 -32.76Z M409.98 -42.18C403.34 -42.18 398.73 -40.65 396.15 -37.59C393.57 -34.53 392.28 -28.9 392.28 -20.7C392.28 -12.5 393.57 -6.87 396.15 -3.81C398.73 -0.75 403.34 0.78 409.98 0.78C416.62 0.78 421.24 -0.75 423.84 -3.81C426.44 -6.87 427.74 -12.5 427.74 -20.7C427.74 -28.9 426.44 -34.53 423.84 -37.59C421.24 -40.65 416.62 -42.18 409.98 -42.18ZM409.98 -34.8C413.1 -34.8 415.23 -33.82 416.37 -31.86C417.51 -29.9 418.08 -26.18 418.08 -20.7C418.08 -15.22 417.51 -11.5 416.37 -9.54C415.23 -7.58 413.1 -6.6 409.98 -6.6C406.86 -6.6 404.73 -7.58 403.59 -9.54C402.45 -11.5 401.88 -15.22 401.88 -20.7C401.88 -26.18 402.45 -29.9 403.59 -31.86C404.73 -33.82 406.86 -34.8 409.98 -34.8Z M465.06 -33.96L465.06 -41.4L431.16 -41.4L431.16 -33.96L443.52 -33.96L443.52 0L452.7 0L452.7 -33.96Z M486.24 -42.18C479.6 -42.18 474.99 -40.65 472.41 -37.59C469.83 -34.53 468.54 -28.9 468.54 -20.7C468.54 -12.5 469.83 -6.87 472.41 -3.81C474.99 -0.75 479.6 0.78 486.24 0.78C492.88 0.78 497.5 -0.75 500.1 -3.81C502.7 -6.87 504 -12.5 504 -20.7C504 -28.9 502.7 -34.53 500.1 -37.59C497.5 -40.65 492.88 -42.18 486.24 -42.18ZM486.24 -34.8C489.36 -34.8 491.49 -33.82 492.63 -31.86C493.77 -29.9 494.34 -26.18 494.34 -20.7C494.34 -15.22 493.77 -11.5 492.63 -9.54C491.49 -7.58 489.36 -6.6 486.24 -6.6C483.12 -6.6 480.99 -7.58 479.85 -9.54C478.71 -11.5 478.14 -15.22 478.14 -20.7C478.14 -26.18 478.71 -29.9 479.85 -31.86C480.99 -33.82 483.12 -34.8 486.24 -34.8Z M534 -21.6C536.56 -21.84 538.4 -22.73 539.52 -24.27C540.64 -25.81 541.2 -28.08 541.2 -31.08C541.2 -35.28 540.14 -38.13 538.02 -39.63C535.9 -41.13 532.1 -41.88 526.62 -41.88C519.82 -41.88 514.62 -41.72 511.02 -41.4L511.02 0C515.06 0.32 520.9 0.48 528.54 0.48C533.62 0.48 537.22 -0.28 539.34 -1.8C541.46 -3.32 542.52 -6.16 542.52 -10.32C542.52 -13.76 541.87 -16.39 540.57 -18.21C539.27 -20.03 537.08 -21.08 534 -21.36ZM519.96 -24.48L519.96 -35.04L526.14 -34.98C528.62 -34.98 530.29 -34.64 531.15 -33.96C532.01 -33.28 532.44 -31.9 532.44 -29.82C532.44 -27.7 532.03 -26.28 531.21 -25.56C530.39 -24.84 528.88 -24.48 526.68 -24.48ZM519.96 -6.42L519.96 -18.42L526.74 -18.42C529.34 -18.38 531.1 -17.93 532.02 -17.07C532.94 -16.21 533.4 -14.54 533.4 -12.06C533.4 -9.78 532.96 -8.27 532.08 -7.53C531.2 -6.79 529.48 -6.42 526.92 -6.42Z M568.02 -21.72C569.42 -21.92 570.62 -22.24 571.62 -22.68C573.74 -23.68 575.5 -25.74 576.9 -28.86C577.5 -30.18 578.92 -34.36 581.16 -41.4L571.86 -41.4C571.82 -41.28 571.76 -41.08 571.68 -40.8C569.84 -34.44 568.29 -30.18 567.03 -28.02C565.77 -25.86 563.72 -24.78 560.88 -24.78L558.06 -24.78C558.38 -26.5 558.54 -28.14 558.54 -29.7L558.54 -41.4L549.42 -41.4L549.42 0L558.54 0L558.54 -14.28C558.54 -15.44 558.38 -16.76 558.06 -18.24L561 -18.24C561.92 -18.24 562.74 -18.14 563.46 -17.94C565.34 -17.46 566.9 -15.96 568.14 -13.44C568.94 -11.8 570.46 -7.32 572.7 0L582.24 0C582.04 -0.64 581.74 -1.58 581.34 -2.82C580.78 -4.58 580.38 -5.83 580.14 -6.57C579.9 -7.31 579.55 -8.36 579.09 -9.72C578.63 -11.08 578.28 -12.03 578.04 -12.57C577.8 -13.11 577.47 -13.86 577.05 -14.82C576.63 -15.78 576.27 -16.44 575.97 -16.8C575.67 -17.16 575.29 -17.65 574.83 -18.27C574.37 -18.89 573.92 -19.32 573.48 -19.56C573.04 -19.8 572.53 -20.08 571.95 -20.4C571.37 -20.72 570.76 -20.95 570.12 -21.09C569.48 -21.23 568.78 -21.36 568.02 -21.48Z M621.72 0L621.72 -41.4L612.66 -41.4L598.68 -16.74C597.6 -14.66 596.8 -12.86 596.28 -11.34L595.92 -11.34C596.24 -13.46 596.4 -15.38 596.4 -17.1L596.4 -41.4L587.7 -41.4L587.7 0L596.76 0L610.74 -24.84C611.7 -26.64 612.48 -28.46 613.08 -30.3L613.5 -30.3C613.14 -28.42 612.96 -26.56 612.96 -24.72L612.96 0Z"></path></g></g></svg>
